<?xml version="1.0" encoding="UTF-8" standalone="no"?>
<!-- Created with Inkscape (http://www.inkscape.org/) -->

<svg
        width="510.23624"
        height="510.23624"
        viewBox="0 0 134.99998 134.99998"
        version="1.1"
        id="svg1"
        xml:space="preserve"
        xmlns:xlink="http://www.w3.org/1999/xlink"
        xmlns="http://www.w3.org/2000/svg"
><defs
     id="defs1"><linearGradient
       id="linearGradient16"><stop
         style="stop-color:#000000;stop-opacity:1;"
         offset="0"
         id="stop16" /><stop
        style="stop-color:#000000;stop-opacity:0.50356293;"
        offset="1"
        id="stop17"/></linearGradient><linearGradient
        id="linearGradient14"><stop
         style="stop-color:#000000;stop-opacity:1;"
         offset="0"
         id="stop14" />
    <stop
            style="stop-color:#000000;stop-opacity:0.5;"
            offset="1"
            id="stop15"/></linearGradient><linearGradient
        id="linearGradient12"><stop
         style="stop-color:#ee4a13;stop-opacity:1;"
         offset="0"
         id="stop12" />
    <stop
            style="stop-color:#fde902;stop-opacity:1;"
            offset="1"
            id="stop13"/></linearGradient><linearGradient
        id="linearGradient10"><stop
         style="stop-color:#de2615;stop-opacity:1;"
         offset="0"
         id="stop10" />
    <stop
            style="stop-color:#fba202;stop-opacity:1;"
            offset="1"
            id="stop11"/></linearGradient><linearGradient
        id="linearGradient5"><stop
         style="stop-color:#368015;stop-opacity:1;"
         offset="0"
         id="stop5" />
    <stop
            style="stop-color:#fde902;stop-opacity:1;"
            offset="0.85359794"
            id="stop6"/></linearGradient><linearGradient
        xlink:href="#linearGradient5"
        id="linearGradient6"
        x1="107.79209"
        y1="208.02922"
        x2="107.7921"
        y2="96.705574"
        gradientUnits="userSpaceOnUse"/><linearGradient
        xlink:href="#linearGradient10"
        id="linearGradient11"
        x1="104.02849"
        y1="148.57468"
        x2="104.02849"
        y2="97.779037"
        gradientUnits="userSpaceOnUse"/><linearGradient
        xlink:href="#linearGradient12"
        id="linearGradient13"
        x1="92.963593"
        y1="136.1917"
        x2="92.963593"
        y2="95.714828"
        gradientUnits="userSpaceOnUse"/><linearGradient
        xlink:href="#linearGradient14"
        id="linearGradient15"
        x1="127.15121"
        y1="200.89795"
        x2="127.15121"
        y2="128.36198"
        gradientUnits="userSpaceOnUse"/><linearGradient
        xlink:href="#linearGradient16"
        id="linearGradient17"
        x1="114.12723"
        y1="199.24725"
        x2="114.12723"
        y2="132.85895"
        gradientUnits="userSpaceOnUse"/><linearGradient
        xlink:href="#linearGradient5"
        id="linearGradient18"
        gradientUnits="userSpaceOnUse"
        x1="107.79209"
        y1="208.02922"
        x2="107.7921"
        y2="96.705574"/><linearGradient
        xlink:href="#linearGradient5"
        id="linearGradient19"
        gradientUnits="userSpaceOnUse"
        x1="107.79209"
        y1="208.02922"
        x2="107.7921"
        y2="96.705574"/><linearGradient
        xlink:href="#linearGradient16"
        id="linearGradient20"
        gradientUnits="userSpaceOnUse"
        x1="114.12723"
        y1="199.24725"
        x2="114.12723"
        y2="132.85895"/></defs>
    <g
            id="layer4"
            style="display:inline"
            transform="translate(-40.292108,-72.118736)"><g
       id="layer2"
       style="display:inline;fill:none"><path
         style="display:inline;opacity:1;fill:url(#linearGradient11);stroke:#000000;stroke-width:0.25;stroke-linecap:round;stroke-linejoin:round;stroke-dasharray:none;stroke-opacity:0.245473"
         d="m 79.033739,159.38354 c -2.481728,-13.23303 6.772534,-23.74435 20.164356,-33.77588 10.750445,-8.05293 17.849455,-15.46014 17.678535,-28.997051 -0.055,-4.35711 -0.59211,-5.99198 -1.76125,-9.640431 25.08588,20.863752 14.48597,38.801202 -10.91436,50.004372 -10.513132,4.63696 -20.647239,12.55371 -25.167281,22.40899 z"
         id="path3" /><path
            style="opacity:1;fill:url(#linearGradient13);stroke:#000000;stroke-width:0.25;stroke-linecap:round;stroke-linejoin:round;stroke-dasharray:none;stroke-opacity:0.245473"
            d="m 79.034802,159.36506 c -12.450427,-19.8745 -3.759956,-36.97266 2.929847,-48.02578 2.976426,-4.91775 10.510226,-18.873608 11.627107,-36.77839 0.123612,-1.98162 1.897942,-2.724473 3.687886,-1.224599 11.407208,9.558604 15.699118,21.914623 15.910948,31.814559 0.15433,7.21264 -1.13122,11.48657 -11.33938,18.73225 -16.499983,11.71157 -24.544261,22.98338 -22.816408,35.48196 z"
            id="path2"/></g>
        <g
                id="layer1"
                style="display:inline;opacity:1;fill:url(#linearGradient6);fill-rule:nonzero"><path
         style="opacity:1;fill:url(#linearGradient18);fill-rule:nonzero;stroke:#000000;stroke-width:0.25;stroke-linecap:round;stroke-linejoin:round;stroke-dasharray:none;stroke-opacity:0.245473"
         d="m 77.673668,198.08111 c -5.665394,-10.48718 -5.684419,-25.70099 -1.233903,-33.54682 -8.785304,-12.1024 -13.293284,-29.70778 -4.417922,-46.21269 -26.05426,19.93575 -28.8398,59.89724 5.651825,79.75951 z"
         id="path1" />
            <path
                    style="display:inline;opacity:1;fill:url(#linearGradient19);fill-rule:nonzero;stroke:#000000;stroke-width:0.25;stroke-linecap:round;stroke-linejoin:round;stroke-dasharray:none;stroke-opacity:0.245473"
                    d="m 133.68932,98.038834 c 0.56562,1.343507 3.04214,5.698596 3.04015,10.893976 -0.003,8.89899 -5.64693,18.7279 -19.63138,26.14111 -18.123158,9.60714 -38.083449,17.17876 -38.60922,45.37236 -0.121693,6.5256 1.587469,13.79189 6.204885,22.10801 1.391254,-15.14275 16.768475,-24.4712 29.832875,-28.48996 12.46813,-3.83534 24.69794,-7.99341 30.06615,-19.32174 -5.98741,12.83983 -13.23972,16.98485 -28.03056,22.591 -16.48361,6.24775 -23.910019,13.67115 -27.567074,26.21495 5.660818,1.77279 10.7166,3.14311 18.756894,3.14734 41.07979,0.0216 55.77326,-33.4957 55.70161,-54.17723 -0.0732,-21.11802 -8.73763,-42.13441 -29.76433,-54.479816 z"
                    id="path4"/>
            <path
                    style="display:inline;opacity:0.25;fill:url(#linearGradient15);stroke:#000000;stroke-width:0.25;stroke-linecap:round;stroke-linejoin:round;stroke-dasharray:none;stroke-opacity:1"
                    d="m 155.70059,120.61777 c 11.55321,38.75746 -15.04159,53.72171 -30.42654,59.77423 -7.38901,2.90687 -29.738354,9.49866 -36.278904,23.15654 5.660818,1.77279 10.7166,3.14311 18.756894,3.14734 41.07979,0.0216 55.72977,-33.4956 55.70161,-54.17723 -0.0269,-19.72783 -7.72975,-31.60375 -7.75306,-31.90088 z"
                    id="path5"/>
            <path
                    style="display:inline;opacity:0.25;mix-blend-mode:normal;fill:url(#linearGradient20);stroke:#000000;stroke-width:0.25;stroke-linecap:round;stroke-linejoin:round;stroke-dasharray:none;stroke-opacity:1"
                    d="m 144.88031,129.53813 c -0.98163,15.84256 -16.71437,26.47774 -31.8399,33.15217 -7.55284,3.33284 -30.121406,12.6706 -32.107345,31.70227 0.570534,1.77981 2.595804,6.16797 3.733072,8.17551 0.982213,-9.39204 8.551147,-21.79032 28.074203,-27.86973 16.75173,-5.21643 34.57016,-11.42901 34.58103,-32.11066 0.004,-8.03098 -2.27873,-12.47439 -2.44106,-13.04956 z"
                    id="path15"/>
            <path
                    style="display:inline;opacity:0.25;mix-blend-mode:normal;fill:url(#linearGradient17);stroke:#000000;stroke-width:0.25;stroke-linecap:round;stroke-linejoin:round;stroke-dasharray:none;stroke-opacity:1"
                    d="m 142.48798,138.78802 c -4.7826,9.7479 -14.32204,17.22785 -29.44757,23.90228 -7.55284,3.33284 -30.121406,12.6706 -32.107345,31.70227 0.570534,1.77981 2.595804,6.16797 3.733072,8.17551 1.26025,-9.36887 6.330514,-14.20315 8.314061,-16.39004 0.552209,-9.47745 17.918002,-18.63033 26.035672,-22.28445 10.39163,-4.67773 20.9141,-16.24365 23.47211,-25.10557 z"
                    id="path17"/></g></g></svg>
